<mxfile host="65bd71144e">
    <diagram id="8ZKokuRgGsmwN36PS9I8" name="Page-1">
        <mxGraphModel dx="1493" dy="409" grid="1" gridSize="10" guides="1" tooltips="1" connect="1" arrows="1" fold="1" page="1" pageScale="1" pageWidth="827" pageHeight="1169" math="0" shadow="0">
            <root>
                <mxCell id="0"/>
                <mxCell id="1" parent="0"/>
                <mxCell id="7" style="edgeStyle=none;html=1;entryX=0.5;entryY=0;entryDx=0;entryDy=0;fontFamily=Comic Sans MS;fontSize=21;" parent="1" source="2" target="3" edge="1">
                    <mxGeometry relative="1" as="geometry"/>
                </mxCell>
                <mxCell id="2" value="Inicio" style="ellipse;whiteSpace=wrap;html=1;fillColor=#647687;fontColor=#ffffff;strokeColor=#314354;fontFamily=Comic Sans MS;fontSize=21;" parent="1" vertex="1">
                    <mxGeometry x="354" y="10" width="120" height="80" as="geometry"/>
                </mxCell>
                <mxCell id="6" value="" style="edgeStyle=none;html=1;fontFamily=Comic Sans MS;fontSize=21;" parent="1" source="3" target="5" edge="1">
                    <mxGeometry relative="1" as="geometry"/>
                </mxCell>
                <mxCell id="3" value="X,Y" style="shape=parallelogram;perimeter=parallelogramPerimeter;whiteSpace=wrap;html=1;fixedSize=1;fontSize=21;fontFamily=Comic Sans MS;fillColor=#1ba1e2;strokeColor=#006EAF;fontColor=#ffffff;" parent="1" vertex="1">
                    <mxGeometry x="355" y="160" width="120" height="60" as="geometry"/>
                </mxCell>
                <mxCell id="9" value="" style="edgeStyle=none;html=1;fontFamily=Comic Sans MS;fontSize=21;" parent="1" source="5" target="8" edge="1">
                    <mxGeometry relative="1" as="geometry">
                        <Array as="points">
                            <mxPoint x="580" y="345"/>
                        </Array>
                    </mxGeometry>
                </mxCell>
                <mxCell id="11" value="" style="edgeStyle=none;html=1;fontFamily=Comic Sans MS;fontSize=21;" parent="1" source="5" target="10" edge="1">
                    <mxGeometry relative="1" as="geometry">
                        <Array as="points">
                            <mxPoint x="265" y="345"/>
                        </Array>
                    </mxGeometry>
                </mxCell>
                <mxCell id="5" value="opcion==1" style="rhombus;whiteSpace=wrap;html=1;fontSize=21;fontFamily=Comic Sans MS;fillColor=#e3c800;strokeColor=#B09500;fontColor=#000000;" parent="1" vertex="1">
                    <mxGeometry x="365" y="290" width="110" height="110" as="geometry"/>
                </mxCell>
                <mxCell id="58" style="edgeStyle=none;html=1;fontFamily=Comic Sans MS;fontSize=29;entryX=0.5;entryY=0;entryDx=0;entryDy=0;" parent="1" source="8" target="51" edge="1">
                    <mxGeometry relative="1" as="geometry">
                        <mxPoint x="10" y="1260" as="targetPoint"/>
                        <Array as="points">
                            <mxPoint x="590" y="1180"/>
                        </Array>
                    </mxGeometry>
                </mxCell>
                <mxCell id="8" value="Z=X+Y" style="whiteSpace=wrap;html=1;fontSize=21;fontFamily=Comic Sans MS;fillColor=#fa6800;strokeColor=#C73500;fontColor=#000000;" parent="1" vertex="1">
                    <mxGeometry x="520" y="400" width="120" height="60" as="geometry"/>
                </mxCell>
                <mxCell id="13" value="" style="edgeStyle=none;html=1;fontFamily=Comic Sans MS;fontSize=21;" parent="1" source="10" target="12" edge="1">
                    <mxGeometry relative="1" as="geometry">
                        <Array as="points">
                            <mxPoint x="400" y="455"/>
                        </Array>
                    </mxGeometry>
                </mxCell>
                <mxCell id="15" value="" style="edgeStyle=none;html=1;fontFamily=Comic Sans MS;fontSize=21;" parent="1" source="10" target="14" edge="1">
                    <mxGeometry relative="1" as="geometry">
                        <Array as="points">
                            <mxPoint x="105" y="455"/>
                        </Array>
                    </mxGeometry>
                </mxCell>
                <mxCell id="10" value="opcion==2" style="rhombus;whiteSpace=wrap;html=1;fontSize=21;fontFamily=Comic Sans MS;fillColor=#6d8764;strokeColor=#3A5431;fontColor=#ffffff;" parent="1" vertex="1">
                    <mxGeometry x="210" y="400" width="110" height="110" as="geometry"/>
                </mxCell>
                <mxCell id="57" style="edgeStyle=none;html=1;fontFamily=Comic Sans MS;fontSize=29;entryX=0.5;entryY=0;entryDx=0;entryDy=0;" parent="1" source="12" target="51" edge="1">
                    <mxGeometry relative="1" as="geometry">
                        <mxPoint x="10" y="1260" as="targetPoint"/>
                        <Array as="points">
                            <mxPoint x="400" y="1180"/>
                        </Array>
                    </mxGeometry>
                </mxCell>
                <mxCell id="12" value="Z=X-Y" style="whiteSpace=wrap;html=1;fontSize=21;fontFamily=Comic Sans MS;fillColor=#76608a;strokeColor=#432D57;fontColor=#ffffff;" parent="1" vertex="1">
                    <mxGeometry x="340" y="510" width="120" height="60" as="geometry"/>
                </mxCell>
                <mxCell id="20" value="" style="edgeStyle=none;html=1;fontFamily=Comic Sans MS;fontSize=21;" parent="1" source="14" target="19" edge="1">
                    <mxGeometry relative="1" as="geometry">
                        <Array as="points">
                            <mxPoint x="255" y="565"/>
                        </Array>
                    </mxGeometry>
                </mxCell>
                <mxCell id="22" value="" style="edgeStyle=none;html=1;fontFamily=Comic Sans MS;fontSize=21;" parent="1" source="14" target="21" edge="1">
                    <mxGeometry relative="1" as="geometry">
                        <Array as="points">
                            <mxPoint x="-75" y="565"/>
                        </Array>
                    </mxGeometry>
                </mxCell>
                <mxCell id="14" value="opcion==3" style="rhombus;whiteSpace=wrap;html=1;fontSize=21;fontFamily=Comic Sans MS;fillColor=#a0522d;strokeColor=#6D1F00;fontColor=#ffffff;" parent="1" vertex="1">
                    <mxGeometry x="50" y="510" width="110" height="110" as="geometry"/>
                </mxCell>
                <mxCell id="56" style="edgeStyle=none;html=1;entryX=0.5;entryY=0;entryDx=0;entryDy=0;fontFamily=Comic Sans MS;fontSize=29;" parent="1" source="19" target="51" edge="1">
                    <mxGeometry relative="1" as="geometry">
                        <Array as="points">
                            <mxPoint x="255" y="1180"/>
                        </Array>
                    </mxGeometry>
                </mxCell>
                <mxCell id="19" value="Z=X*Y" style="whiteSpace=wrap;html=1;fontSize=21;fontFamily=Comic Sans MS;fillColor=#e3c800;strokeColor=#B09500;fontColor=#000000;" parent="1" vertex="1">
                    <mxGeometry x="195" y="620" width="120" height="60" as="geometry"/>
                </mxCell>
                <mxCell id="24" value="" style="edgeStyle=none;html=1;fontFamily=Comic Sans MS;fontSize=21;" parent="1" source="21" target="23" edge="1">
                    <mxGeometry relative="1" as="geometry">
                        <Array as="points">
                            <mxPoint x="80" y="675"/>
                        </Array>
                    </mxGeometry>
                </mxCell>
                <mxCell id="31" value="" style="edgeStyle=none;html=1;fontFamily=Comic Sans MS;fontSize=21;" parent="1" source="21" target="30" edge="1">
                    <mxGeometry relative="1" as="geometry">
                        <Array as="points">
                            <mxPoint x="-305" y="675"/>
                        </Array>
                    </mxGeometry>
                </mxCell>
                <mxCell id="21" value="opcion==4" style="rhombus;whiteSpace=wrap;html=1;fontSize=21;fontFamily=Comic Sans MS;fillColor=#60a917;strokeColor=#2D7600;fontColor=#ffffff;" parent="1" vertex="1">
                    <mxGeometry x="-130" y="620" width="110" height="110" as="geometry"/>
                </mxCell>
                <mxCell id="27" value="" style="edgeStyle=none;html=1;fontFamily=Comic Sans MS;fontSize=21;" parent="1" source="23" target="26" edge="1">
                    <mxGeometry relative="1" as="geometry">
                        <Array as="points">
                            <mxPoint x="-30" y="760"/>
                        </Array>
                    </mxGeometry>
                </mxCell>
                <mxCell id="29" value="" style="edgeStyle=none;html=1;fontFamily=Comic Sans MS;fontSize=21;" parent="1" source="23" target="28" edge="1">
                    <mxGeometry relative="1" as="geometry">
                        <Array as="points">
                            <mxPoint x="180" y="760"/>
                        </Array>
                    </mxGeometry>
                </mxCell>
                <mxCell id="23" value="Y==0" style="rhombus;whiteSpace=wrap;html=1;fontSize=21;fontFamily=Comic Sans MS;fillColor=#d80073;strokeColor=#A50040;fontColor=#ffffff;" parent="1" vertex="1">
                    <mxGeometry x="40" y="720" width="80" height="80" as="geometry"/>
                </mxCell>
                <mxCell id="53" style="edgeStyle=none;html=1;entryX=0.5;entryY=0;entryDx=0;entryDy=0;fontFamily=Comic Sans MS;fontSize=29;" parent="1" source="26" target="51" edge="1">
                    <mxGeometry relative="1" as="geometry">
                        <Array as="points">
                            <mxPoint x="-30" y="1180"/>
                        </Array>
                    </mxGeometry>
                </mxCell>
                <mxCell id="26" value="Z=X/Y" style="whiteSpace=wrap;html=1;fontSize=21;fontFamily=Comic Sans MS;fillColor=#a20025;strokeColor=#6F0000;fontColor=#ffffff;" parent="1" vertex="1">
                    <mxGeometry x="-90" y="800" width="120" height="60" as="geometry"/>
                </mxCell>
                <mxCell id="28" value="NO se puede realizar la division" style="shape=document;whiteSpace=wrap;html=1;boundedLbl=1;fontSize=21;fontFamily=Comic Sans MS;fillColor=#60a917;strokeColor=#2D7600;fontColor=#ffffff;" parent="1" vertex="1">
                    <mxGeometry x="120" y="800" width="130" height="110" as="geometry"/>
                </mxCell>
                <mxCell id="34" value="" style="edgeStyle=none;html=1;fontFamily=Comic Sans MS;fontSize=21;" parent="1" source="30" target="33" edge="1">
                    <mxGeometry relative="1" as="geometry">
                        <Array as="points">
                            <mxPoint x="-160" y="775"/>
                        </Array>
                    </mxGeometry>
                </mxCell>
                <mxCell id="38" value="" style="edgeStyle=none;html=1;fontFamily=Comic Sans MS;fontSize=21;" parent="1" source="30" target="37" edge="1">
                    <mxGeometry relative="1" as="geometry">
                        <Array as="points">
                            <mxPoint x="-468" y="775"/>
                        </Array>
                    </mxGeometry>
                </mxCell>
                <mxCell id="30" value="opcion==5" style="rhombus;whiteSpace=wrap;html=1;fontSize=21;fontFamily=Comic Sans MS;fillColor=#0050ef;strokeColor=#001DBC;fontColor=#ffffff;" parent="1" vertex="1">
                    <mxGeometry x="-360" y="720" width="110" height="110" as="geometry"/>
                </mxCell>
                <mxCell id="52" style="edgeStyle=none;html=1;entryX=0.5;entryY=0;entryDx=0;entryDy=0;fontFamily=Comic Sans MS;fontSize=29;" parent="1" source="33" target="51" edge="1">
                    <mxGeometry relative="1" as="geometry">
                        <Array as="points">
                            <mxPoint x="-160" y="1180"/>
                        </Array>
                    </mxGeometry>
                </mxCell>
                <mxCell id="33" value="Z=pow(X,Z)" style="whiteSpace=wrap;html=1;fontSize=21;fontFamily=Comic Sans MS;fillColor=#6a00ff;strokeColor=#3700CC;fontColor=#ffffff;" parent="1" vertex="1">
                    <mxGeometry x="-220" y="800" width="120" height="60" as="geometry"/>
                </mxCell>
                <mxCell id="40" value="" style="edgeStyle=none;html=1;fontFamily=Comic Sans MS;fontSize=21;" parent="1" source="37" target="39" edge="1">
                    <mxGeometry relative="1" as="geometry">
                        <Array as="points">
                            <mxPoint x="-340" y="885"/>
                        </Array>
                    </mxGeometry>
                </mxCell>
                <mxCell id="50" value="" style="edgeStyle=none;html=1;fontFamily=Comic Sans MS;fontSize=21;" parent="1" source="37" target="49" edge="1">
                    <mxGeometry relative="1" as="geometry">
                        <Array as="points">
                            <mxPoint x="-640" y="885"/>
                        </Array>
                    </mxGeometry>
                </mxCell>
                <mxCell id="37" value="opcion==6" style="rhombus;whiteSpace=wrap;html=1;fontSize=21;fontFamily=Comic Sans MS;fillColor=#a20025;strokeColor=#6F0000;fontColor=#ffffff;" parent="1" vertex="1">
                    <mxGeometry x="-523" y="830" width="110" height="110" as="geometry"/>
                </mxCell>
                <mxCell id="44" value="" style="edgeStyle=none;html=1;fontFamily=Comic Sans MS;fontSize=21;" parent="1" source="39" target="41" edge="1">
                    <mxGeometry relative="1" as="geometry">
                        <Array as="points">
                            <mxPoint x="-240" y="960"/>
                        </Array>
                    </mxGeometry>
                </mxCell>
                <mxCell id="46" value="" style="edgeStyle=none;html=1;fontFamily=Comic Sans MS;fontSize=21;" parent="1" source="39" target="45" edge="1">
                    <mxGeometry relative="1" as="geometry">
                        <Array as="points">
                            <mxPoint x="-430" y="960"/>
                        </Array>
                    </mxGeometry>
                </mxCell>
                <mxCell id="39" value="Y&amp;lt;=0" style="rhombus;whiteSpace=wrap;html=1;fontSize=21;fontFamily=Comic Sans MS;fillColor=#e3c800;strokeColor=#B09500;fontColor=#000000;" parent="1" vertex="1">
                    <mxGeometry x="-380" y="920" width="80" height="80" as="geometry"/>
                </mxCell>
                <mxCell id="41" value="NO se puede calcular el algoritmo" style="shape=document;whiteSpace=wrap;html=1;boundedLbl=1;fontSize=21;fontFamily=Comic Sans MS;fillColor=#60a917;strokeColor=#2D7600;fontColor=#ffffff;" parent="1" vertex="1">
                    <mxGeometry x="-300" y="1010" width="130" height="100" as="geometry"/>
                </mxCell>
                <mxCell id="55" style="edgeStyle=none;html=1;entryX=0.5;entryY=0;entryDx=0;entryDy=0;fontFamily=Comic Sans MS;fontSize=29;" parent="1" source="45" target="51" edge="1">
                    <mxGeometry relative="1" as="geometry">
                        <Array as="points">
                            <mxPoint x="-430" y="1180"/>
                        </Array>
                    </mxGeometry>
                </mxCell>
                <mxCell id="45" value="Z=log(X)" style="whiteSpace=wrap;html=1;fontSize=21;fontFamily=Comic Sans MS;fillColor=#1ba1e2;strokeColor=#006EAF;fontColor=#ffffff;" parent="1" vertex="1">
                    <mxGeometry x="-490" y="1010" width="120" height="60" as="geometry"/>
                </mxCell>
                <mxCell id="49" value="Opcion no valida" style="shape=document;whiteSpace=wrap;html=1;boundedLbl=1;fontSize=21;fontFamily=Comic Sans MS;fillColor=#d80073;strokeColor=#A50040;fontColor=#ffffff;" parent="1" vertex="1">
                    <mxGeometry x="-700" y="940" width="120" height="80" as="geometry"/>
                </mxCell>
                <mxCell id="60" value="" style="edgeStyle=none;html=1;fontFamily=Comic Sans MS;fontSize=29;" parent="1" source="51" target="59" edge="1">
                    <mxGeometry relative="1" as="geometry"/>
                </mxCell>
                <mxCell id="51" value="Z" style="shape=document;whiteSpace=wrap;html=1;boundedLbl=1;fontFamily=Comic Sans MS;fontSize=29;fillColor=#60a917;fontColor=#ffffff;strokeColor=#2D7600;" parent="1" vertex="1">
                    <mxGeometry x="-40" y="1180" width="120" height="80" as="geometry"/>
                </mxCell>
                <mxCell id="59" value="Fin" style="ellipse;whiteSpace=wrap;html=1;fontSize=29;fontFamily=Comic Sans MS;fillColor=#647687;strokeColor=#314354;fontColor=#ffffff;" parent="1" vertex="1">
                    <mxGeometry x="-40" y="1350" width="120" height="60" as="geometry"/>
                </mxCell>
            </root>
        </mxGraphModel>
    </diagram>
</mxfile>